<svg width="20" height="21" viewBox="0 0 20 21" fill="none" xmlns="http://www.w3.org/2000/svg">
<g clip-path="url(#clip0_267_2793)">
<path d="M3.22125 1.37911C3.21903 1.80866 2.94801 2.19079 2.54338 2.33491V3.23986C2.30397 3.49595 2.07771 3.76408 1.86551 4.04314V2.33491C1.37766 2.16244 1.09715 1.65107 1.21385 1.14692C1.33055 0.642776 1.80728 0.306732 2.32131 0.366176C2.83533 0.42562 3.2227 0.86165 3.22125 1.37911Z" fill="url(#paint0_linear_267_2793)"/>
<path d="M18.8121 1.37911C18.8098 1.80866 18.5388 2.19079 18.1342 2.33491V4.04314C17.922 3.76408 17.6958 3.49595 17.4563 3.23986V2.33491C16.9685 2.16244 16.688 1.65107 16.8047 1.14692C16.9214 0.642814 17.3981 0.306731 17.9121 0.366175C18.4261 0.42562 18.8135 0.86165 18.8121 1.37911Z" fill="url(#paint1_linear_267_2793)"/>
<path d="M14.7453 12.5649C15.3069 12.5649 15.7621 12.1096 15.7621 11.5481C15.7621 10.9865 15.3069 10.5312 14.7453 10.5312C14.1838 10.5312 13.7285 10.9865 13.7285 11.5481C13.7285 12.1096 14.1838 12.5649 14.7453 12.5649Z" fill="url(#paint2_linear_267_2793)"/>
<path d="M10.0003 15.2757C10.749 15.2757 11.356 14.6687 11.356 13.9199H8.64453C8.64457 14.6687 9.25155 15.2757 10.0003 15.2757Z" fill="url(#paint3_linear_267_2793)"/>
<path d="M5.25509 12.5649C5.81665 12.5649 6.27189 12.1096 6.27189 11.5481C6.27189 10.9865 5.81665 10.5312 5.25509 10.5312C4.69352 10.5312 4.23828 10.9865 4.23828 11.5481C4.23828 12.1096 4.69352 12.5649 5.25509 12.5649Z" fill="url(#paint4_linear_267_2793)"/>
<path d="M9.99997 0.701172C4.57162 0.701172 0.170898 5.16899 0.170898 11.4237C0.170898 18.1254 4.57162 20.3593 9.99997 20.3593C15.4283 20.3593 19.829 18.1254 19.829 11.4237C19.829 5.16899 15.4284 0.701172 9.99997 0.701172ZM9.66103 5.10729H10.3389C10.5261 5.10729 10.6778 5.25902 10.6778 5.44622C10.6778 5.63342 10.5261 5.78515 10.3389 5.78515H9.66103C9.47383 5.78515 9.3221 5.63342 9.3221 5.44622C9.3221 5.25906 9.47387 5.10729 9.66103 5.10729ZM8.9832 6.12409H11.0168C11.204 6.12409 11.3557 6.27582 11.3557 6.46302C11.3557 6.65022 11.204 6.80196 11.0168 6.80196H8.9832C8.796 6.80196 8.64427 6.65022 8.64427 6.46302C8.64427 6.27582 8.796 6.12409 8.9832 6.12409ZM13.7283 17.6478H6.27172C3.46389 17.6478 1.18774 15.3716 1.18774 12.5639C1.18774 9.75606 3.46389 7.47983 6.27172 7.47983H13.7283C16.5361 7.47983 18.8122 9.75602 18.8122 12.5638C18.8122 15.3716 16.5361 17.6478 13.7283 17.6478Z" fill="url(#paint5_linear_267_2793)"/>
<path d="M13.7279 8.1582H6.27139C3.83795 8.1582 1.86523 10.1309 1.86523 12.5644C1.86523 14.9978 3.83795 16.9705 6.27139 16.9705H13.7279C16.1613 16.9705 18.1341 14.9978 18.1341 12.5643C18.1341 10.1308 16.1613 8.1582 13.7279 8.1582ZM5.25458 13.2422C4.31862 13.2422 3.55991 12.4835 3.55991 11.5476C3.55991 10.6116 4.31862 9.85288 5.25458 9.85288C6.19054 9.85288 6.94925 10.6116 6.94925 11.5476C6.94812 12.483 6.19007 13.2411 5.25458 13.2422ZM9.99963 15.9537C8.87698 15.9525 7.96715 15.0427 7.96602 13.9201C7.96602 13.5457 8.26953 13.2422 8.64389 13.2422H11.3554C11.7297 13.2422 12.0332 13.5457 12.0332 13.9201C12.0321 15.0427 11.1223 15.9526 9.99963 15.9537ZM14.7447 13.2422C13.8088 13.2422 13.05 12.4835 13.05 11.5476C13.05 10.6116 13.8088 9.85288 14.7447 9.85288C15.6807 9.85288 16.4394 10.6116 16.4394 11.5476C16.4383 12.483 15.6802 13.2411 14.7447 13.2422Z" fill="url(#paint6_linear_267_2793)"/>
</g>
<defs>
<linearGradient id="paint0_linear_267_2793" x1="3.1464" y1="3.60917" x2="0.752058" y2="3.06355" gradientUnits="userSpaceOnUse">
<stop stop-color="#E6F2FB"/>
<stop offset="0.533654" stop-color="#EBE7FB" stop-opacity="0.7"/>
<stop offset="1" stop-color="#E6F2FB"/>
</linearGradient>
<linearGradient id="paint1_linear_267_2793" x1="18.7372" y1="3.60917" x2="16.3429" y2="3.06355" gradientUnits="userSpaceOnUse">
<stop stop-color="#E6F2FB"/>
<stop offset="0.533654" stop-color="#EBE7FB" stop-opacity="0.7"/>
<stop offset="1" stop-color="#E6F2FB"/>
</linearGradient>
<linearGradient id="paint2_linear_267_2793" x1="15.6873" y1="12.3253" x2="13.5354" y2="11.4371" gradientUnits="userSpaceOnUse">
<stop stop-color="#E6F2FB"/>
<stop offset="0.533654" stop-color="#EBE7FB" stop-opacity="0.7"/>
<stop offset="1" stop-color="#E6F2FB"/>
</linearGradient>
<linearGradient id="paint3_linear_267_2793" x1="11.2562" y1="15.1159" x2="9.25916" y2="13.4673" gradientUnits="userSpaceOnUse">
<stop stop-color="#E6F2FB"/>
<stop offset="0.533654" stop-color="#EBE7FB" stop-opacity="0.7"/>
<stop offset="1" stop-color="#E6F2FB"/>
</linearGradient>
<linearGradient id="paint4_linear_267_2793" x1="6.19704" y1="12.3253" x2="4.04516" y2="11.4371" gradientUnits="userSpaceOnUse">
<stop stop-color="#E6F2FB"/>
<stop offset="0.533654" stop-color="#EBE7FB" stop-opacity="0.7"/>
<stop offset="1" stop-color="#E6F2FB"/>
</linearGradient>
<linearGradient id="paint5_linear_267_2793" x1="19.1055" y1="18.0435" x2="-1.69595" y2="9.4575" gradientUnits="userSpaceOnUse">
<stop stop-color="#E6F2FB"/>
<stop offset="0.533654" stop-color="#EBE7FB" stop-opacity="0.7"/>
<stop offset="1" stop-color="#E6F2FB"/>
</linearGradient>
<linearGradient id="paint6_linear_267_2793" x1="17.5353" y1="15.9323" x2="4.78881" y2="6.21933" gradientUnits="userSpaceOnUse">
<stop stop-color="#E6F2FB"/>
<stop offset="0.533654" stop-color="#EBE7FB" stop-opacity="0.7"/>
<stop offset="1" stop-color="#E6F2FB"/>
</linearGradient>
<clipPath id="clip0_267_2793">
<rect width="20" height="20" fill="white" transform="translate(0 0.359375)"/>
</clipPath>
</defs>
</svg>
